<svg xmlns="http://www.w3.org/2000/svg" viewBox="0 0 1848.53 612.82"><defs><style>.cls-1{fill:#fff;stroke:#6b6b6b;stroke-miterlimit:10;}</style></defs><title>Ресурс 2</title><g id="Слой_2" data-name="Слой 2"><g id="Слой_1-2" data-name="Слой 1"><path class="cls-1" d="M232.57,439.16c.58-39.25-30.59-71.57-69.26-71.57q-1.74,0-3.47,0t-3.46.21q-1.73.15-3.45.38t-3.43.55q-1.71.32-3.4.72t-3.36.88q-1.67.48-3.31,1t-3.25,1.21q-1.61.64-3.19,1.37t-3.12,1.52q-1.54.8-3,1.67t-3,1.82q-1.46.95-2.86,2t-2.76,2.1q-1.36,1.08-2.66,2.23t-2.54,2.36q-1.24,1.21-2.42,2.48t-2.3,2.6q-1.12,1.33-2.17,2.71t-2,2.81q-1,1.43-1.89,2.91t-1.75,3q-.84,1.52-1.6,3.08t-1.45,3.16q-.68,1.6-1.29,3.22T95,416.94q-.52,1.65-1,3.33t-.8,3.38q-.36,1.7-.64,3.41t-.47,3.44q-.19,1.73-.3,3.46t-.13,3.47q0,1.74,0,3.47t.21,3.46q.15,1.73.38,3.45t.55,3.43q.32,1.71.72,3.4t.88,3.36q.48,1.67,1,3.31t1.21,3.25q.64,1.61,1.37,3.19t1.52,3.12q.8,1.54,1.67,3t1.82,3q.95,1.45,2,2.86t2.1,2.76q1.08,1.36,2.23,2.66t2.36,2.54q1.21,1.24,2.48,2.42t2.6,2.3q1.33,1.12,2.71,2.17t2.81,2q1.43,1,2.91,1.89t3,1.75q1.52.84,3.08,1.6t3.16,1.45q1.6.68,3.22,1.29t3.28,1.13q1.65.52,3.33,1t3.38.8q1.7.36,3.41.64t3.44.47q1.73.19,3.46.3t3.47.13c38.67,1.15,70.42-30.59,71-69.26ZM159.84,600.77q-4,0-7.92-.17T144,600q-3.94-.38-7.86-1t-7.8-1.35q-3.88-.77-7.73-1.73T113,593.9q-3.79-1.15-7.52-2.49t-7.38-2.87q-3.65-1.52-7.23-3.23t-7.06-3.59q-3.48-1.88-6.87-3.93t-6.67-4.27q-3.28-2.22-6.45-4.6T57.63,564q-3-2.53-6-5.22T46,553.27q-2.78-2.83-5.41-5.79t-5.11-6q-2.48-3.09-4.8-6.3t-4.48-6.53Q24,525.3,22,521.88t-3.81-6.94q-1.82-3.52-3.46-7.12t-3.1-7.29q-1.46-3.68-2.73-7.43t-2.36-7.56q-1.08-3.81-2-7.67T3,470.11q-.7-3.9-1.21-7.83T1,454.41q-.31-3.95-.42-7.91t0-7.92C1.69,346.24,72.69,277,163.88,278.13q3.91,0,7.82.22t7.8.6q3.89.4,7.76,1t7.7,1.36q3.83.78,7.62,1.74t7.53,2.11q3.74,1.15,7.42,2.48t7.28,2.84q3.61,1.51,7.14,3.19t7,3.54q3.44,1.86,6.79,3.88t6.59,4.21q3.24,2.18,6.38,4.53t6.15,4.83q3,2.49,5.9,5.13t5.64,5.41q2.76,2.78,5.37,5.68t5.09,5.94q2.47,3,4.79,6.18t4.48,6.41q2.16,3.26,4.16,6.62t3.83,6.82q1.83,3.46,3.49,7T310.7,377q1.48,3.62,2.79,7.31t2.43,7.43q1.12,3.75,2.06,7.54t1.69,7.64q.75,3.84,1.31,7.71t.93,7.76q.37,3.89.55,7.8t.16,7.82q.06,4-.08,8t-.48,8q-.34,4-.89,8t-1.28,7.9q-.74,3.93-1.68,7.82t-2.07,7.73q-1.13,3.84-2.45,7.62t-2.83,7.48q-1.51,3.71-3.21,7.33T304.06,515q-1.87,3.54-3.92,7t-4.27,6.77q-2.22,3.33-4.6,6.54t-4.93,6.3q-2.54,3.09-5.24,6t-5.53,5.78q-2.84,2.82-5.82,5.49t-6.09,5.19q-3.11,2.52-6.34,4.88t-6.58,4.56q-3.35,2.2-6.8,4.22t-7,3.88q-3.55,1.85-7.19,3.52t-7.35,3.15q-3.72,1.48-7.5,2.78t-7.63,2.4q-3.85,1.1-7.74,2t-7.83,1.62q-3.94.71-7.91,1.23t-8,.83q-4,.31-8,.43t-8,0ZM712.79,440.89c-3.46,67-27.13,120.05-86.58,150.07q-5.19,2.92-10.58,5.46t-11,4.66q-5.56,2.12-11.27,3.83t-11.52,3q-5.82,1.28-11.71,2.12t-11.84,1.25q-5.94.4-11.9.37t-11.89-.52q-5.94-.48-11.82-1.4T511,607.44q-5.8-1.35-11.49-3.13t-11.22-4q-5.54-2.19-10.9-4.79T466.92,590q-5.15-3-10.07-6.35t-9.57-7.08c-69.26-51.95-68.11-127-62.91-204.9h92.35V427c0,53.1,22.51,83.69,63.49,88.31,42.71,4.62,70.42-19,83.11-74.46Zm522.93-336.5c-85.42,0-155.84,71.57-155.84,159.3q0,3.86.13,7.73t.51,7.71q.35,3.85.88,7.68t1.26,7.62q.72,3.8,1.63,7.55t2,7.46q1.09,3.71,2.36,7.36t2.72,7.23q1.45,3.58,3.07,7.09t3.41,6.93q1.79,3.43,3.74,6.76t4.07,6.57q2.11,3.23,4.38,6.36t4.69,6.14q2.42,3,5,5.9t5.27,5.65q2.7,2.76,5.54,5.39t5.79,5.11q3,2.49,6,4.82t6.26,4.52q3.19,2.19,6.48,4.21t6.68,3.89q3.39,1.86,6.86,3.56t7,3.22q3.55,1.52,7.17,2.87t7.3,2.52q3.68,1.17,7.42,2.16t7.52,1.8q3.78.81,7.59,1.43t7.66,1.05q3.84.43,7.7.68t7.72.3c86.58,0,156.42-71,156.42-159.3,0-87.73-69.26-159.3-155.84-159.3Zm259.73,173.16H1597l50.79,68.11,1.15-1.15h138.53l-72.73,90,132.75,177.77H1706.7l-65.22-87.16-9.81,12.12h-139.1l82.54-102.16-85.42-114.28q-1.15,5.41-2.53,10.77t-3,10.65q-1.6,5.29-3.43,10.51t-3.87,10.36q-2,5.14-4.31,10.19t-4.74,10q-2.47,4.95-5.16,9.78t-5.57,9.56q-2.88,4.72-6,9.31t-6.36,9.05q-3.27,4.46-6.73,8.77t-7.1,8.48q-3.64,4.16-7.45,8.17t-7.79,7.85q-4,3.84-8.12,7.51t-8.43,7.16q-4.29,3.49-8.72,6.8t-9,6.42q-4.57,3.11-9.27,6t-9.52,5.64q-4.82,2.72-9.75,5.23t-10,4.81q-5,2.3-10.15,4.38t-10.33,3.95q-5.21,1.86-10.49,3.51t-10.63,3.06q-5.35,1.42-10.75,2.61t-10.85,2.15q-5.45,1-10.93,1.69t-11,1.22q-5.51.49-11,.75t-11.06.29q-9.18,0-18.34-.73t-18.24-2q-9.08-1.33-18.05-3.3t-17.77-4.57q-8.81-2.6-17.41-5.81t-17-7q-8.35-3.81-16.41-8.21t-15.79-9.34q-7.73-5-15.09-10.44t-14.32-11.48q-7-6-13.47-12.46t-12.56-13.38q-6-6.91-11.58-14.23t-10.55-15q-5-7.69-9.46-15.72t-8.33-16.35h-91.2V548.25H810.33V377.4H712.21V277.55H976.56V264.27q0-6.41.23-12.82t.86-12.8q.58-6.39,1.48-12.74t2.1-12.65q1.21-6.3,2.72-12.53t3.33-12.39q1.82-6.15,3.93-12.21t4.52-12q2.41-5.95,5.11-11.77t5.68-11.5q3-5.68,6.23-11.21t6.77-10.89q3.52-5.36,7.3-10.55T1034.62,98q4-5,8.29-9.78t8.76-9.37q4.5-4.58,9.21-8.93t9.64-8.47q4.92-4.11,10-8T1091,46q5.3-3.61,10.77-7t11.1-6.43q5.63-3.08,11.4-5.88t11.67-5.31q5.9-2.51,11.92-4.74T1160,12.56q6.12-1.92,12.33-3.55t12.48-2.94q6.28-1.32,12.61-2.33T1210.12,2q6.38-.7,12.78-1.08T1235.72.5q6.64,0,13.27.4T1262.23,2q6.6.71,13.17,1.75t13.06,2.41q6.5,1.37,12.92,3.07t12.75,3.72q6.33,2,12.54,4.37t12.3,5q6.09,2.66,12,5.62t11.73,6.22q5.79,3.26,11.4,6.81t11,7.38q5.43,3.83,10.65,7.93t10.24,8.46q5,4.36,9.79,9t9.33,9.46q4.54,4.85,8.83,9.92t8.32,10.35q4,5.28,7.78,10.76t7.23,11.14q3.47,5.66,6.65,11.5t6.06,11.82q2.88,6,5.45,12.11t4.83,12.37q2.26,6.25,4.19,12.6t3.55,12.8q1.61,6.44,2.9,13t2.23,13.09q1,6.57,1.57,13.19t.89,13.25q.28,6.64.22,13.28t-.45,13.27Z"/></g></g></svg>