<?xml version="1.0" standalone="no"?>
<!DOCTYPE svg PUBLIC "-//W3C//DTD SVG 20010904//EN"
 "http://www.w3.org/TR/2001/REC-SVG-20010904/DTD/svg10.dtd">
<svg version="1.0" xmlns="http://www.w3.org/2000/svg"
 width="700.000000pt" height="700.000000pt" viewBox="0 0 700.000000 700.000000"
 preserveAspectRatio="xMidYMid meet">
<metadata>
Created by potrace 1.11, written by Peter Selinger 2001-2013
</metadata>
<g transform="translate(0.000000,700.000000) scale(0.100000,-0.100000)"
fill="#000000" stroke="none">
<path d="M3198 6645 c-2 -2 -39 -6 -83 -10 -81 -6 -94 -8 -200 -26 -95 -16
-98 -17 -145 -28 -25 -7 -55 -14 -67 -16 -68 -15 -242 -84 -332 -131 -277
-146 -445 -331 -547 -601 -13 -35 -22 -63 -19 -63 2 0 0 -11 -5 -26 -6 -14
-12 -37 -15 -52 -2 -15 -7 -43 -10 -62 -11 -61 -8 -265 5 -352 21 -142 75
-298 138 -403 128 -214 331 -375 627 -498 59 -25 303 -102 348 -111 12 -2 54
-11 92 -20 67 -15 370 -68 465 -81 25 -3 52 -8 60 -10 8 -2 31 -6 50 -9 114
-17 323 -66 415 -98 301 -103 417 -264 403 -559 -4 -89 -9 -107 -41 -173 -87
-175 -250 -273 -554 -330 -36 -7 -142 -17 -232 -21 -74 -3 -87 -6 -110 -29
l-25 -26 -1 -312 0 -313 28 -31 c30 -35 24 -35 272 -19 244 16 460 57 660 128
330 116 589 326 724 587 72 139 103 242 127 415 8 60 5 294 -5 351 -6 33 -12
70 -15 84 -8 48 -38 145 -64 210 -24 60 -96 192 -121 222 -122 148 -163 188
-281 273 -58 41 -68 48 -160 100 -153 86 -448 187 -675 229 -44 9 -314 54
-360 61 -72 10 -98 15 -230 41 -532 106 -711 253 -692 569 6 105 30 166 94
232 66 68 205 133 318 148 22 3 58 9 80 12 55 10 446 10 520 0 103 -13 233
-41 265 -58 8 -4 36 -17 62 -29 68 -31 139 -99 175 -167 38 -71 50 -115 58
-213 6 -66 11 -78 37 -104 l30 -29 364 0 365 0 30 29 31 29 -6 100 c-11 192
-48 338 -121 487 -53 106 -112 187 -209 284 -230 230 -540 357 -1001 410 -58
7 -511 14 -517 9z"/>
<path d="M1898 3811 c-7 -2 -26 -17 -43 -33 l-30 -29 0 -1667 0 -1666 35 -33
35 -32 1223 -1 1224 0 33 34 33 35 0 337 0 338 -35 33 -35 33 -754 0 -754 0
-34 34 -33 35 -1 1238 c0 681 -1 1248 -1 1260 -1 12 -16 37 -35 55 l-35 33
-390 0 c-215 0 -396 -2 -403 -4z"/>
</g>
</svg>
